<svg width="610" height="211" viewBox="0 0 610 211" fill="none" xmlns="http://www.w3.org/2000/svg">
<path d="M246.102 158.145C245.815 157.585 245.6 156.992 245.457 156.367C245.314 155.729 245.242 155.065 245.242 154.375C245.242 153.672 245.359 152.747 245.594 151.602C245.841 150.456 246.173 149.251 246.59 147.988C247.006 146.712 247.488 145.41 248.035 144.082C248.595 142.754 249.187 141.458 249.812 140.195C251.089 137.565 252.358 135.286 253.621 133.359H253.406C251.857 133.359 250.418 133.711 249.09 134.414C248.764 134.661 248.452 134.785 248.152 134.785C247.527 134.785 246.922 134.479 246.336 133.867C244.982 132.435 245.789 131.25 248.758 130.312C250.151 129.857 251.271 129.629 252.117 129.629C252.977 129.629 253.667 129.766 254.187 130.039C254.708 130.299 255.151 130.612 255.516 130.977C256.089 131.549 256.492 132.116 256.727 132.676C256.974 133.236 257.098 133.73 257.098 134.16C257.098 134.577 256.967 135.143 256.707 135.859C256.46 136.562 256.141 137.318 255.75 138.125L254.422 140.703C253.953 141.602 253.484 142.546 253.016 143.535C252.547 144.525 252.078 145.514 251.609 146.504C251.141 147.493 250.724 148.457 250.359 149.395C249.565 151.491 249.168 153.268 249.168 154.727C249.168 155.612 249.253 156.341 249.422 156.914C249.995 156.003 250.698 155.052 251.531 154.062L254.266 150.996C257.43 147.585 259.487 145.319 260.437 144.199C262.664 141.582 264.37 139.115 265.555 136.797C266.036 135.872 266.277 135.033 266.277 134.277C266.277 132.884 265.893 131.836 265.125 131.133C264.852 130.859 264.812 130.527 265.008 130.137C265.216 129.746 265.424 129.453 265.633 129.258C266.141 128.802 266.714 128.574 267.352 128.574C267.99 128.574 268.53 128.704 268.973 128.965C269.415 129.225 269.773 129.557 270.047 129.961C270.607 130.755 270.887 131.745 270.887 132.93C270.887 134.102 270.633 135.345 270.125 136.66C269.63 137.975 268.973 139.264 268.152 140.527C267.345 141.777 266.421 142.995 265.379 144.18C264.35 145.352 263.296 146.471 262.215 147.539L256.316 153.105C254.533 154.902 253.341 156.133 252.742 156.797C251.596 158.073 250.861 158.913 250.535 159.316C250.21 159.72 249.917 159.961 249.656 160.039C249.396 160.117 249.044 160.156 248.602 160.156C248.159 160.156 247.703 159.961 247.234 159.57C246.779 159.18 246.401 158.704 246.102 158.145ZM268.738 158.672C268.191 158.151 267.762 157.493 267.449 156.699C267.137 155.892 266.974 154.941 266.961 153.848C266.948 152.754 267.078 151.647 267.352 150.527C267.638 149.408 268.035 148.327 268.543 147.285C269.064 146.243 269.682 145.267 270.398 144.355C271.128 143.444 271.928 142.65 272.801 141.973C274.702 140.514 276.674 139.785 278.719 139.785C281.401 139.785 283.217 140.964 284.168 143.32C284.845 145.026 284.884 147.09 284.285 149.512C283.738 151.738 282.736 153.783 281.277 155.645C279.832 157.507 278.126 158.828 276.16 159.609C275.171 160 274.194 160.195 273.23 160.195C272.28 160.195 271.427 160.072 270.672 159.824C269.93 159.577 269.285 159.193 268.738 158.672ZM272.469 149.199C272.078 150.163 271.766 151.152 271.531 152.168C271.31 153.184 271.206 154.147 271.219 155.059C271.232 155.957 271.368 156.667 271.629 157.188C271.902 157.695 272.339 157.949 272.937 157.949C273.536 157.949 274.122 157.747 274.695 157.344C275.281 156.927 275.848 156.38 276.395 155.703C276.941 155.026 277.456 154.245 277.937 153.359C278.419 152.474 278.842 151.549 279.207 150.586C280.001 148.49 280.385 146.628 280.359 145C280.359 143.568 280.066 142.656 279.48 142.266C279.246 142.109 278.914 142.031 278.484 142.031C278.068 142.031 277.586 142.227 277.039 142.617C276.492 142.995 275.945 143.509 275.398 144.16C274.852 144.811 274.324 145.573 273.816 146.445C273.309 147.318 272.859 148.236 272.469 149.199ZM305.73 156.152C306.03 156.152 306.18 156.302 306.18 156.602C306.18 157.734 305.62 158.685 304.5 159.453C303.745 159.948 302.859 160.195 301.844 160.195C301.01 160.195 300.372 160 299.93 159.609C299.135 158.906 298.738 158.047 298.738 157.031C298.738 155.742 299.279 153.77 300.359 151.113C298.354 153.822 296.948 155.625 296.141 156.523C295.333 157.409 294.63 158.099 294.031 158.594C292.729 159.661 291.551 160.195 290.496 160.195C288.881 160.195 287.807 159.499 287.273 158.105C287.117 157.676 287.039 157.188 287.039 156.641C287.039 156.081 287.13 155.462 287.312 154.785C287.508 154.095 287.755 153.379 288.055 152.637C288.354 151.895 288.68 151.133 289.031 150.352L290.086 148.008C291.44 145 291.941 143.216 291.59 142.656C291.434 142.409 291.141 142.161 290.711 141.914C290.555 141.823 290.477 141.667 290.477 141.445C290.477 141.211 290.568 140.99 290.75 140.781C290.945 140.573 291.193 140.391 291.492 140.234C292.13 139.935 292.768 139.785 293.406 139.785C294.044 139.785 294.526 139.857 294.852 140C295.19 140.13 295.464 140.299 295.672 140.508C296.102 140.938 296.316 141.413 296.316 141.934C296.316 142.454 296.232 143.04 296.062 143.691C295.893 144.329 295.672 145.026 295.398 145.781C295.125 146.536 294.826 147.318 294.5 148.125C293.602 150.234 292.996 151.628 292.684 152.305L291.961 153.809C291.557 154.707 291.355 155.339 291.355 155.703C291.355 156.068 291.414 156.328 291.531 156.484C291.648 156.628 291.857 156.699 292.156 156.699C292.469 156.699 292.827 156.556 293.23 156.27C293.634 155.983 294.077 155.599 294.559 155.117C295.04 154.635 295.542 154.082 296.062 153.457C296.583 152.819 297.091 152.161 297.586 151.484C298.562 150.156 299.279 149.089 299.734 148.281C302.495 143.398 303.966 140.846 304.148 140.625C304.565 140.065 304.988 139.785 305.418 139.785C305.861 139.785 306.245 139.837 306.57 139.941C306.896 140.033 307.176 140.169 307.41 140.352C307.957 140.755 308.133 141.159 307.937 141.562C304.76 148.19 303.048 152.357 302.801 154.062C302.736 154.648 302.703 155.052 302.703 155.273C302.703 156.263 303.003 156.758 303.602 156.758C304.161 156.758 304.624 156.66 304.988 156.465C305.353 156.257 305.6 156.152 305.73 156.152ZM308.719 156.562C308.719 156.159 308.803 155.788 308.973 155.449C309.155 155.098 309.376 154.805 309.637 154.57C310.184 154.062 310.756 153.809 311.355 153.809C311.876 153.809 312.137 154.076 312.137 154.609C312.137 155.964 312.586 156.908 313.484 157.441C313.81 157.637 314.148 157.734 314.5 157.734C314.852 157.734 315.151 157.695 315.398 157.617C315.646 157.539 315.874 157.415 316.082 157.246C316.551 156.868 316.785 156.419 316.785 155.898C316.785 155.378 316.668 154.902 316.434 154.473C316.199 154.03 315.906 153.568 315.555 153.086L314.441 151.523C312.879 149.44 312.098 147.52 312.098 145.762C312.098 144.303 312.716 142.982 313.953 141.797C315.359 140.456 317.163 139.785 319.363 139.785C321.29 139.785 322.794 140.26 323.875 141.211C324.76 141.979 325.203 142.858 325.203 143.848C325.203 144.876 324.812 145.697 324.031 146.309C323.328 146.855 322.625 147.057 321.922 146.914C321.609 146.849 321.368 146.693 321.199 146.445C321.03 146.185 320.997 145.892 321.102 145.566C321.206 145.241 321.258 144.902 321.258 144.551C321.258 144.199 321.193 143.874 321.062 143.574C320.932 143.275 320.756 143.021 320.535 142.812C320.079 142.383 319.598 142.168 319.09 142.168C318.595 142.168 318.185 142.227 317.859 142.344C317.534 142.448 317.247 142.604 317 142.812C316.492 143.281 316.238 143.861 316.238 144.551C316.238 145.228 316.355 145.814 316.59 146.309C316.824 146.803 317.111 147.298 317.449 147.793C317.801 148.288 318.178 148.789 318.582 149.297C318.986 149.805 319.357 150.339 319.695 150.898C320.516 152.214 320.926 153.372 320.926 154.375C320.926 155.365 320.717 156.198 320.301 156.875C319.884 157.539 319.344 158.112 318.68 158.594C317.26 159.648 315.672 160.176 313.914 160.176C312.234 160.176 310.906 159.772 309.93 158.965C309.122 158.288 308.719 157.487 308.719 156.562ZM342.41 158.145C342.384 158.34 342.098 159.368 341.551 161.23C341.017 163.092 340.568 164.57 340.203 165.664C339.383 168.112 338.706 169.635 338.172 170.234C337.742 170.703 337.221 170.938 336.609 170.938C335.867 170.938 335.301 170.573 334.91 169.844C334.793 169.635 334.734 169.401 334.734 169.141C334.734 168.893 334.93 168.346 335.32 167.5C336.349 165.352 337.723 161.12 339.441 154.805C340.131 152.305 340.587 150.605 340.809 149.707L341.434 147.266C341.837 145.651 342.072 144.557 342.137 143.984C342.215 143.398 342.182 142.988 342.039 142.754C341.896 142.507 341.733 142.324 341.551 142.207C341.368 142.077 341.199 141.966 341.043 141.875C340.887 141.784 340.822 141.621 340.848 141.387C340.874 141.139 340.978 140.918 341.16 140.723C341.355 140.514 341.596 140.339 341.883 140.195C342.469 139.922 343.055 139.785 343.641 139.785C344.24 139.785 344.708 139.857 345.047 140C345.385 140.143 345.665 140.339 345.887 140.586C346.355 141.094 346.564 141.589 346.512 142.07C346.381 143.073 346.238 143.932 346.082 144.648C348.361 141.406 350.724 139.785 353.172 139.785C355.398 139.785 356.889 140.938 357.645 143.242C357.905 144.049 358.035 145.033 358.035 146.191C358.035 147.35 357.859 148.516 357.508 149.688C357.156 150.846 356.681 151.947 356.082 152.988C355.483 154.03 354.786 154.993 353.992 155.879C353.198 156.751 352.358 157.513 351.473 158.164C349.598 159.518 347.827 160.195 346.16 160.195C344.493 160.195 343.243 159.512 342.41 158.145ZM345.418 149.824C344.949 150.736 344.565 151.647 344.266 152.559C343.979 153.47 343.836 154.303 343.836 155.059C343.836 155.814 343.999 156.439 344.324 156.934C344.65 157.415 345.131 157.656 345.77 157.656C346.408 157.656 347.039 157.487 347.664 157.148C348.302 156.797 348.914 156.328 349.5 155.742C350.099 155.156 350.652 154.473 351.16 153.691C351.681 152.897 352.13 152.057 352.508 151.172C353.328 149.245 353.738 147.415 353.738 145.684C353.738 144.746 353.615 144.017 353.367 143.496C353.12 142.975 352.736 142.715 352.215 142.715C351.707 142.715 351.173 142.917 350.613 143.32C350.053 143.711 349.467 144.238 348.855 144.902C348.243 145.553 347.638 146.309 347.039 147.168C346.44 148.014 345.9 148.9 345.418 149.824ZM362.762 158.672C362.215 158.151 361.785 157.493 361.473 156.699C361.16 155.892 360.997 154.941 360.984 153.848C360.971 152.754 361.102 151.647 361.375 150.527C361.661 149.408 362.059 148.327 362.566 147.285C363.087 146.243 363.706 145.267 364.422 144.355C365.151 143.444 365.952 142.65 366.824 141.973C368.725 140.514 370.698 139.785 372.742 139.785C375.424 139.785 377.241 140.964 378.191 143.32C378.868 145.026 378.908 147.09 378.309 149.512C377.762 151.738 376.759 153.783 375.301 155.645C373.855 157.507 372.15 158.828 370.184 159.609C369.194 160 368.217 160.195 367.254 160.195C366.303 160.195 365.451 160.072 364.695 159.824C363.953 159.577 363.309 159.193 362.762 158.672ZM366.492 149.199C366.102 150.163 365.789 151.152 365.555 152.168C365.333 153.184 365.229 154.147 365.242 155.059C365.255 155.957 365.392 156.667 365.652 157.188C365.926 157.695 366.362 157.949 366.961 157.949C367.56 157.949 368.146 157.747 368.719 157.344C369.305 156.927 369.871 156.38 370.418 155.703C370.965 155.026 371.479 154.245 371.961 153.359C372.443 152.474 372.866 151.549 373.23 150.586C374.025 148.49 374.409 146.628 374.383 145C374.383 143.568 374.09 142.656 373.504 142.266C373.27 142.109 372.937 142.031 372.508 142.031C372.091 142.031 371.609 142.227 371.062 142.617C370.516 142.995 369.969 143.509 369.422 144.16C368.875 144.811 368.348 145.573 367.84 146.445C367.332 147.318 366.883 148.236 366.492 149.199ZM399.754 156.152C400.053 156.152 400.203 156.302 400.203 156.602C400.203 157.734 399.643 158.685 398.523 159.453C397.768 159.948 396.883 160.195 395.867 160.195C395.034 160.195 394.396 160 393.953 159.609C393.159 158.906 392.762 158.047 392.762 157.031C392.762 155.742 393.302 153.77 394.383 151.113C392.378 153.822 390.971 155.625 390.164 156.523C389.357 157.409 388.654 158.099 388.055 158.594C386.753 159.661 385.574 160.195 384.52 160.195C382.905 160.195 381.831 159.499 381.297 158.105C381.141 157.676 381.062 157.188 381.062 156.641C381.062 156.081 381.154 155.462 381.336 154.785C381.531 154.095 381.779 153.379 382.078 152.637C382.378 151.895 382.703 151.133 383.055 150.352L384.109 148.008C385.464 145 385.965 143.216 385.613 142.656C385.457 142.409 385.164 142.161 384.734 141.914C384.578 141.823 384.5 141.667 384.5 141.445C384.5 141.211 384.591 140.99 384.773 140.781C384.969 140.573 385.216 140.391 385.516 140.234C386.154 139.935 386.792 139.785 387.43 139.785C388.068 139.785 388.549 139.857 388.875 140C389.214 140.13 389.487 140.299 389.695 140.508C390.125 140.938 390.34 141.413 390.34 141.934C390.34 142.454 390.255 143.04 390.086 143.691C389.917 144.329 389.695 145.026 389.422 145.781C389.148 146.536 388.849 147.318 388.523 148.125C387.625 150.234 387.02 151.628 386.707 152.305L385.984 153.809C385.581 154.707 385.379 155.339 385.379 155.703C385.379 156.068 385.437 156.328 385.555 156.484C385.672 156.628 385.88 156.699 386.18 156.699C386.492 156.699 386.85 156.556 387.254 156.27C387.658 155.983 388.1 155.599 388.582 155.117C389.064 154.635 389.565 154.082 390.086 153.457C390.607 152.819 391.115 152.161 391.609 151.484C392.586 150.156 393.302 149.089 393.758 148.281C396.518 143.398 397.99 140.846 398.172 140.625C398.589 140.065 399.012 139.785 399.441 139.785C399.884 139.785 400.268 139.837 400.594 139.941C400.919 140.033 401.199 140.169 401.434 140.352C401.98 140.755 402.156 141.159 401.961 141.562C398.784 148.19 397.072 152.357 396.824 154.062C396.759 154.648 396.727 155.052 396.727 155.273C396.727 156.263 397.026 156.758 397.625 156.758C398.185 156.758 398.647 156.66 399.012 156.465C399.376 156.257 399.624 156.152 399.754 156.152ZM403.758 158.105C403.562 157.676 403.465 157.168 403.465 156.582C403.465 155.996 403.556 155.352 403.738 154.648C403.921 153.932 404.155 153.203 404.441 152.461C404.728 151.719 405.047 150.964 405.398 150.195L406.395 147.93C407.684 144.948 408.159 143.19 407.82 142.656C407.664 142.409 407.365 142.161 406.922 141.914C406.779 141.823 406.707 141.667 406.707 141.445C406.707 141.211 406.798 140.99 406.98 140.781C407.176 140.573 407.43 140.391 407.742 140.234C408.367 139.935 408.999 139.785 409.637 139.785C410.275 139.785 410.756 139.857 411.082 140C411.421 140.13 411.701 140.299 411.922 140.508C412.339 140.938 412.547 141.458 412.547 142.07C412.547 142.682 412.43 143.372 412.195 144.141C411.961 144.909 411.668 145.716 411.316 146.562C410.965 147.409 410.581 148.275 410.164 149.16L409.012 151.719C408.191 153.607 407.781 154.857 407.781 155.469C407.781 156.667 408.204 157.266 409.051 157.266C411.225 157.266 413.263 155.977 415.164 153.398C416.271 151.901 417.065 150.273 417.547 148.516C417.768 147.682 417.879 146.927 417.879 146.25C417.879 145.56 417.853 144.987 417.801 144.531C417.762 144.076 417.69 143.672 417.586 143.32C417.417 142.695 417.13 142.155 416.727 141.699C416.453 141.361 416.577 140.964 417.098 140.508C417.671 140.026 418.484 139.785 419.539 139.785C420.19 139.785 420.763 140.091 421.258 140.703C421.883 141.432 422.195 142.48 422.195 143.848C422.195 145.202 421.993 146.536 421.59 147.852C421.186 149.154 420.633 150.41 419.93 151.621C419.227 152.819 418.393 153.939 417.43 154.98C416.479 156.022 415.451 156.927 414.344 157.695C411.974 159.362 409.604 160.195 407.234 160.195C405.529 160.195 404.37 159.499 403.758 158.105ZM424.305 153.164C424.357 152.031 424.546 150.951 424.871 149.922C425.197 148.88 425.633 147.878 426.18 146.914C426.727 145.938 427.365 145.02 428.094 144.16C428.836 143.288 429.637 142.526 430.496 141.875C432.358 140.482 434.24 139.785 436.141 139.785C438.367 139.785 439.852 140.703 440.594 142.539C440.854 143.164 440.978 143.906 440.965 144.766C440.952 145.612 440.789 146.4 440.477 147.129C440.164 147.845 439.728 148.503 439.168 149.102C438.621 149.688 437.964 150.215 437.195 150.684C436.44 151.152 435.613 151.549 434.715 151.875C432.866 152.526 430.887 152.865 428.777 152.891C428.725 153.073 428.693 153.346 428.68 153.711C428.667 154.076 428.706 154.486 428.797 154.941C428.888 155.384 429.044 155.781 429.266 156.133C429.734 156.914 430.411 157.305 431.297 157.305C432.807 157.305 434.279 156.862 435.711 155.977C436.219 155.677 436.629 155.371 436.941 155.059C437.267 154.733 437.547 154.57 437.781 154.57C438.016 154.57 438.217 154.714 438.387 155C438.569 155.273 438.66 155.586 438.66 155.938C438.66 156.628 438.465 157.227 438.074 157.734C436.434 159.375 433.992 160.195 430.75 160.195C428.836 160.195 427.299 159.622 426.141 158.477C424.839 157.174 424.227 155.404 424.305 153.164ZM435.711 142.383C434.344 142.383 433.029 143.32 431.766 145.195C430.698 146.81 429.839 148.724 429.187 150.938C431.362 150.716 433.25 149.857 434.852 148.359C436.323 146.953 437.059 145.605 437.059 144.316C437.059 143.027 436.609 142.383 435.711 142.383ZM446.375 156.855C448.562 156.126 450.581 155.762 452.43 155.762C453.667 155.762 454.624 156.107 455.301 156.797C455.913 157.422 456.219 158.268 456.219 159.336C456.219 159.583 456.141 159.792 455.984 159.961C455.828 160.117 455.62 160.195 455.359 160.195C455.099 160.195 454.826 160.124 454.539 159.98C454.253 159.837 453.921 159.681 453.543 159.512C451.082 158.405 448.374 158.503 445.418 159.805C445.04 159.974 444.715 160.091 444.441 160.156C444.168 160.234 443.862 160.195 443.523 160.039C443.185 159.883 442.866 159.674 442.566 159.414C441.824 158.763 441.564 158.118 441.785 157.48C442.006 156.829 442.365 156.126 442.859 155.371C443.367 154.603 443.947 153.841 444.598 153.086C445.249 152.331 445.952 151.589 446.707 150.859C448.699 148.997 450.138 147.695 451.023 146.953C453.055 145.221 454.292 144.147 454.734 143.73C455.19 143.314 455.496 142.982 455.652 142.734C454.506 143.255 452.996 143.613 451.121 143.809C450.639 143.861 450.242 143.887 449.93 143.887C448.589 143.887 447.631 143.646 447.059 143.164C446.499 142.682 446.219 141.96 446.219 140.996C446.219 140.618 446.303 140.326 446.473 140.117C446.642 139.896 446.837 139.785 447.059 139.785C447.293 139.785 447.592 139.857 447.957 140C448.335 140.13 448.79 140.28 449.324 140.449C450.717 140.892 451.941 141.113 452.996 141.113C454.051 141.113 454.786 141.061 455.203 140.957C455.62 140.853 455.991 140.742 456.316 140.625L457.215 140.273C457.488 140.169 457.762 140.117 458.035 140.117C458.309 140.117 458.549 140.208 458.758 140.391C458.979 140.56 459.181 140.768 459.363 141.016C459.754 141.576 459.949 142.109 459.949 142.617C459.949 143.125 459.676 143.743 459.129 144.473C458.582 145.189 457.879 145.951 457.02 146.758C456.16 147.552 455.21 148.372 454.168 149.219L451.082 151.777C448.686 153.809 447.117 155.501 446.375 156.855ZM446.121 157.383C446.16 157.357 446.173 157.344 446.16 157.344C446.134 157.344 446.121 157.357 446.121 157.383ZM492.02 156.055C492.293 156.055 492.43 156.198 492.43 156.484C492.43 157.604 491.85 158.568 490.691 159.375C489.923 159.922 489.194 160.195 488.504 160.195C487.827 160.195 487.286 160.117 486.883 159.961C486.479 159.805 486.115 159.557 485.789 159.219C485.06 158.438 484.695 157.363 484.695 155.996C484.695 155.723 484.747 155.286 484.852 154.688C483.797 156.315 482.892 157.461 482.137 158.125C480.613 159.505 479.122 160.195 477.664 160.195C475.359 160.195 473.849 159.154 473.133 157.07C472.872 156.302 472.742 155.339 472.742 154.18C472.742 153.021 472.918 151.849 473.27 150.664C473.621 149.479 474.096 148.353 474.695 147.285C475.307 146.217 476.01 145.228 476.805 144.316C477.612 143.392 478.458 142.591 479.344 141.914C481.245 140.495 482.964 139.785 484.5 139.785C486.036 139.785 487.267 140.41 488.191 141.66C490.457 133.9 492.163 129.323 493.309 127.93C493.79 127.357 494.298 127.07 494.832 127.07C495.717 127.07 496.388 127.324 496.844 127.832C496.987 128.001 497.059 128.171 497.059 128.34C497.059 128.509 496.954 128.822 496.746 129.277C496.538 129.733 496.232 130.469 495.828 131.484C494.669 134.544 493.855 136.784 493.387 138.203C492.189 141.836 491.381 144.336 490.965 145.703L489.891 149.316C488.966 152.533 488.504 154.577 488.504 155.449C488.504 156.322 488.823 156.758 489.461 156.758C490.047 156.758 490.516 156.68 490.867 156.523L491.609 156.172C491.753 156.094 491.889 156.055 492.02 156.055ZM478.602 157.266C479.943 157.266 481.479 155.957 483.211 153.34C485.021 150.632 486.284 147.682 487 144.492C486.948 143.607 486.577 142.956 485.887 142.539C485.652 142.396 485.294 142.324 484.812 142.324C484.344 142.324 483.79 142.5 483.152 142.852C482.527 143.19 481.915 143.652 481.316 144.238C480.73 144.824 480.177 145.514 479.656 146.309C479.148 147.09 478.706 147.923 478.328 148.809C477.508 150.736 477.098 152.63 477.098 154.492C477.098 156.341 477.599 157.266 478.602 157.266ZM496.629 158.672C496.082 158.151 495.652 157.493 495.34 156.699C495.027 155.892 494.865 154.941 494.852 153.848C494.839 152.754 494.969 151.647 495.242 150.527C495.529 149.408 495.926 148.327 496.434 147.285C496.954 146.243 497.573 145.267 498.289 144.355C499.018 143.444 499.819 142.65 500.691 141.973C502.592 140.514 504.565 139.785 506.609 139.785C509.292 139.785 511.108 140.964 512.059 143.32C512.736 145.026 512.775 147.09 512.176 149.512C511.629 151.738 510.626 153.783 509.168 155.645C507.723 157.507 506.017 158.828 504.051 159.609C503.061 160 502.085 160.195 501.121 160.195C500.171 160.195 499.318 160.072 498.562 159.824C497.82 159.577 497.176 159.193 496.629 158.672ZM500.359 149.199C499.969 150.163 499.656 151.152 499.422 152.168C499.201 153.184 499.096 154.147 499.109 155.059C499.122 155.957 499.259 156.667 499.52 157.188C499.793 157.695 500.229 157.949 500.828 157.949C501.427 157.949 502.013 157.747 502.586 157.344C503.172 156.927 503.738 156.38 504.285 155.703C504.832 155.026 505.346 154.245 505.828 153.359C506.31 152.474 506.733 151.549 507.098 150.586C507.892 148.49 508.276 146.628 508.25 145C508.25 143.568 507.957 142.656 507.371 142.266C507.137 142.109 506.805 142.031 506.375 142.031C505.958 142.031 505.477 142.227 504.93 142.617C504.383 142.995 503.836 143.509 503.289 144.16C502.742 144.811 502.215 145.573 501.707 146.445C501.199 147.318 500.75 148.236 500.359 149.199ZM529.48 143.477C529.077 143.477 528.504 143.867 527.762 144.648C527.02 145.417 526.375 146.12 525.828 146.758L524.168 148.75L520.965 152.832C520.21 154.264 519.617 155.456 519.187 156.406L518.133 158.672C517.859 159.232 517.618 159.629 517.41 159.863C517.215 160.085 516.941 160.195 516.59 160.195C516.251 160.195 515.919 160.13 515.594 160C515.281 159.883 515.008 159.727 514.773 159.531C514.279 159.115 514.031 158.659 514.031 158.164C514.031 157.969 514.174 157.585 514.461 157.012L515.203 155.43C515.437 154.961 515.711 154.362 516.023 153.633L517.117 150.957C518.654 147.116 519.422 144.635 519.422 143.516C519.422 142.917 519.227 142.474 518.836 142.188L518.445 141.914C518.315 141.823 518.25 141.667 518.25 141.445C518.25 141.211 518.335 140.99 518.504 140.781C518.686 140.573 518.921 140.391 519.207 140.234C519.793 139.935 520.379 139.785 520.965 139.785C521.564 139.785 522.026 139.85 522.352 139.98C522.677 140.111 522.951 140.286 523.172 140.508C523.654 140.964 523.895 141.439 523.895 141.934C523.895 142.428 523.829 142.93 523.699 143.438C523.582 143.932 523.426 144.44 523.23 144.961C523.048 145.469 522.853 145.97 522.645 146.465C522.436 146.96 522.247 147.389 522.078 147.754L521.687 148.594C521.583 148.802 521.557 148.867 521.609 148.789C523.055 146.784 524.005 145.495 524.461 144.922L525.828 143.281C526.831 142.109 527.618 141.335 528.191 140.957C529.35 140.176 530.262 139.785 530.926 139.785C531.59 139.785 532.15 139.87 532.605 140.039C533.061 140.208 533.458 140.449 533.797 140.762C534.513 141.426 534.871 142.272 534.871 143.301C534.871 144.329 534.637 145.404 534.168 146.523C533.699 147.643 533.289 148.555 532.937 149.258C532.599 149.948 532.273 150.651 531.961 151.367C530.984 153.542 530.496 155.124 530.496 156.113C530.496 156.556 530.848 156.777 531.551 156.777C532.098 156.777 532.592 156.66 533.035 156.426C533.491 156.191 533.784 156.074 533.914 156.074C534.187 156.074 534.324 156.211 534.324 156.484C534.324 157.643 533.732 158.613 532.547 159.395C531.753 159.928 531.023 160.195 530.359 160.195C529.695 160.195 529.142 160.124 528.699 159.98C528.27 159.837 527.885 159.609 527.547 159.297C526.779 158.607 526.395 157.643 526.395 156.406C526.395 154.896 526.87 153.008 527.82 150.742C528.51 149.193 528.999 148.132 529.285 147.559L529.949 146.172C530.353 145.339 530.555 144.681 530.555 144.199C530.555 143.717 530.197 143.477 529.48 143.477ZM551.941 143.477C551.538 143.477 550.965 143.867 550.223 144.648C549.48 145.417 548.836 146.12 548.289 146.758L546.629 148.75L543.426 152.832C542.671 154.264 542.078 155.456 541.648 156.406L540.594 158.672C540.32 159.232 540.079 159.629 539.871 159.863C539.676 160.085 539.402 160.195 539.051 160.195C538.712 160.195 538.38 160.13 538.055 160C537.742 159.883 537.469 159.727 537.234 159.531C536.74 159.115 536.492 158.659 536.492 158.164C536.492 157.969 536.635 157.585 536.922 157.012L537.664 155.43C537.898 154.961 538.172 154.362 538.484 153.633L539.578 150.957C541.115 147.116 541.883 144.635 541.883 143.516C541.883 142.917 541.687 142.474 541.297 142.188L540.906 141.914C540.776 141.823 540.711 141.667 540.711 141.445C540.711 141.211 540.796 140.99 540.965 140.781C541.147 140.573 541.381 140.391 541.668 140.234C542.254 139.935 542.84 139.785 543.426 139.785C544.025 139.785 544.487 139.85 544.812 139.98C545.138 140.111 545.411 140.286 545.633 140.508C546.115 140.964 546.355 141.439 546.355 141.934C546.355 142.428 546.29 142.93 546.16 143.438C546.043 143.932 545.887 144.44 545.691 144.961C545.509 145.469 545.314 145.97 545.105 146.465C544.897 146.96 544.708 147.389 544.539 147.754L544.148 148.594C544.044 148.802 544.018 148.867 544.07 148.789C545.516 146.784 546.466 145.495 546.922 144.922L548.289 143.281C549.292 142.109 550.079 141.335 550.652 140.957C551.811 140.176 552.723 139.785 553.387 139.785C554.051 139.785 554.611 139.87 555.066 140.039C555.522 140.208 555.919 140.449 556.258 140.762C556.974 141.426 557.332 142.272 557.332 143.301C557.332 144.329 557.098 145.404 556.629 146.523C556.16 147.643 555.75 148.555 555.398 149.258C555.06 149.948 554.734 150.651 554.422 151.367C553.445 153.542 552.957 155.124 552.957 156.113C552.957 156.556 553.309 156.777 554.012 156.777C554.559 156.777 555.053 156.66 555.496 156.426C555.952 156.191 556.245 156.074 556.375 156.074C556.648 156.074 556.785 156.211 556.785 156.484C556.785 157.643 556.193 158.613 555.008 159.395C554.214 159.928 553.484 160.195 552.82 160.195C552.156 160.195 551.603 160.124 551.16 159.98C550.73 159.837 550.346 159.609 550.008 159.297C549.24 158.607 548.855 157.643 548.855 156.406C548.855 154.896 549.331 153.008 550.281 150.742C550.971 149.193 551.46 148.132 551.746 147.559L552.41 146.172C552.814 145.339 553.016 144.681 553.016 144.199C553.016 143.717 552.658 143.477 551.941 143.477ZM560.516 153.164C560.568 152.031 560.756 150.951 561.082 149.922C561.408 148.88 561.844 147.878 562.391 146.914C562.937 145.938 563.576 145.02 564.305 144.16C565.047 143.288 565.848 142.526 566.707 141.875C568.569 140.482 570.451 139.785 572.352 139.785C574.578 139.785 576.062 140.703 576.805 142.539C577.065 143.164 577.189 143.906 577.176 144.766C577.163 145.612 577 146.4 576.687 147.129C576.375 147.845 575.939 148.503 575.379 149.102C574.832 149.688 574.174 150.215 573.406 150.684C572.651 151.152 571.824 151.549 570.926 151.875C569.077 152.526 567.098 152.865 564.988 152.891C564.936 153.073 564.904 153.346 564.891 153.711C564.878 154.076 564.917 154.486 565.008 154.941C565.099 155.384 565.255 155.781 565.477 156.133C565.945 156.914 566.622 157.305 567.508 157.305C569.018 157.305 570.49 156.862 571.922 155.977C572.43 155.677 572.84 155.371 573.152 155.059C573.478 154.733 573.758 154.57 573.992 154.57C574.227 154.57 574.428 154.714 574.598 155C574.78 155.273 574.871 155.586 574.871 155.938C574.871 156.628 574.676 157.227 574.285 157.734C572.645 159.375 570.203 160.195 566.961 160.195C565.047 160.195 563.51 159.622 562.352 158.477C561.049 157.174 560.437 155.404 560.516 153.164ZM571.922 142.383C570.555 142.383 569.24 143.32 567.977 145.195C566.909 146.81 566.049 148.724 565.398 150.938C567.573 150.716 569.461 149.857 571.062 148.359C572.534 146.953 573.27 145.605 573.27 144.316C573.27 143.027 572.82 142.383 571.922 142.383ZM579.266 159.531C579.005 159.336 578.797 159.121 578.641 158.887C578.484 158.639 578.4 158.431 578.387 158.262C578.374 158.079 578.406 157.865 578.484 157.617C578.576 157.357 578.693 157.044 578.836 156.68C581.492 150.143 582.82 145.755 582.82 143.516C582.781 142.891 582.566 142.448 582.176 142.188L581.785 141.914C581.668 141.823 581.603 141.667 581.59 141.445C581.59 141.211 581.674 140.99 581.844 140.781C582.013 140.573 582.234 140.391 582.508 140.234C583.068 139.935 583.641 139.785 584.227 139.785C584.826 139.785 585.288 139.85 585.613 139.98C585.952 140.111 586.238 140.286 586.473 140.508C586.967 140.977 587.215 141.471 587.215 141.992C587.228 142.513 587.169 143.04 587.039 143.574C586.922 144.108 586.779 144.635 586.609 145.156C586.44 145.664 586.271 146.152 586.102 146.621C585.932 147.077 585.822 147.415 585.77 147.637C585.665 148.092 585.626 148.379 585.652 148.496C585.965 148.223 586.154 147.956 586.219 147.695L586.98 146.25C588.673 143.203 590.327 141.185 591.941 140.195C592.41 139.922 592.97 139.785 593.621 139.785C594.285 139.785 594.819 140.02 595.223 140.488C595.626 140.944 595.835 141.452 595.848 142.012C595.874 142.572 595.835 143.04 595.73 143.418C595.639 143.783 595.496 144.128 595.301 144.453C594.871 145.182 594.35 145.547 593.738 145.547C593.569 145.547 593.413 145.488 593.27 145.371L592.84 145C592.41 144.622 591.993 144.434 591.59 144.434C591.199 144.434 590.717 144.694 590.145 145.215C589.585 145.736 588.999 146.406 588.387 147.227C586.329 149.948 584.65 152.995 583.348 156.367L582.488 158.633C582.267 159.193 582.072 159.596 581.902 159.844C581.733 160.078 581.479 160.195 581.141 160.195C580.815 160.195 580.483 160.13 580.145 160C579.819 159.883 579.526 159.727 579.266 159.531ZM243.328 203.262C243.354 202.129 243.53 201.003 243.855 199.883C244.194 198.75 244.637 197.682 245.184 196.68C245.743 195.677 246.401 194.753 247.156 193.906C247.924 193.06 248.758 192.331 249.656 191.719C251.531 190.43 253.504 189.785 255.574 189.785C257.71 189.785 259.161 190.638 259.93 192.344C260.203 192.956 260.327 193.652 260.301 194.434C260.288 195.202 260.164 195.911 259.93 196.562C259.695 197.201 259.402 197.773 259.051 198.281C258.256 199.427 257.456 200 256.648 200C255.75 200 255.086 199.753 254.656 199.258C254.279 198.828 254.161 198.327 254.305 197.754C254.344 197.585 254.461 197.435 254.656 197.305C254.852 197.161 255.099 196.94 255.398 196.641C256.245 195.755 256.687 194.72 256.727 193.535C256.753 192.728 256.258 192.324 255.242 192.324C254.148 192.324 253.003 192.936 251.805 194.16C250.06 195.944 248.829 198.229 248.113 201.016C247.488 203.438 247.605 205.208 248.465 206.328C248.973 206.979 249.663 207.305 250.535 207.305C252.006 207.305 253.426 206.784 254.793 205.742C255.21 205.417 255.548 205.085 255.809 204.746C256.069 204.408 256.31 204.238 256.531 204.238C256.753 204.238 256.935 204.349 257.078 204.57C257.234 204.779 257.312 205.052 257.312 205.391C257.312 206.159 256.967 206.914 256.277 207.656C254.506 209.349 252.378 210.195 249.891 210.195C247.768 210.195 246.128 209.59 244.969 208.379C243.823 207.181 243.276 205.475 243.328 203.262ZM262.234 203.164C262.286 202.031 262.475 200.951 262.801 199.922C263.126 198.88 263.562 197.878 264.109 196.914C264.656 195.938 265.294 195.02 266.023 194.16C266.766 193.288 267.566 192.526 268.426 191.875C270.288 190.482 272.169 189.785 274.07 189.785C276.297 189.785 277.781 190.703 278.523 192.539C278.784 193.164 278.908 193.906 278.895 194.766C278.881 195.612 278.719 196.4 278.406 197.129C278.094 197.845 277.658 198.503 277.098 199.102C276.551 199.688 275.893 200.215 275.125 200.684C274.37 201.152 273.543 201.549 272.645 201.875C270.796 202.526 268.816 202.865 266.707 202.891C266.655 203.073 266.622 203.346 266.609 203.711C266.596 204.076 266.635 204.486 266.727 204.941C266.818 205.384 266.974 205.781 267.195 206.133C267.664 206.914 268.341 207.305 269.227 207.305C270.737 207.305 272.208 206.862 273.641 205.977C274.148 205.677 274.559 205.371 274.871 205.059C275.197 204.733 275.477 204.57 275.711 204.57C275.945 204.57 276.147 204.714 276.316 205C276.499 205.273 276.59 205.586 276.59 205.938C276.59 206.628 276.395 207.227 276.004 207.734C274.363 209.375 271.922 210.195 268.68 210.195C266.766 210.195 265.229 209.622 264.07 208.477C262.768 207.174 262.156 205.404 262.234 203.164ZM273.641 192.383C272.273 192.383 270.958 193.32 269.695 195.195C268.628 196.81 267.768 198.724 267.117 200.938C269.292 200.716 271.18 199.857 272.781 198.359C274.253 196.953 274.988 195.605 274.988 194.316C274.988 193.027 274.539 192.383 273.641 192.383ZM294.168 209.219C293.842 208.88 293.576 208.451 293.367 207.93C293.172 207.396 293.074 206.784 293.074 206.094C293.074 205.391 293.23 204.453 293.543 203.281C293.868 202.109 294.279 200.775 294.773 199.277L296.414 194.414C298.745 187.643 300.092 182.409 300.457 178.711C300.574 177.617 301.108 177.07 302.059 177.07C302.658 177.07 303.152 177.214 303.543 177.5C304.298 178.073 304.663 178.711 304.637 179.414C304.611 180.117 304.487 180.977 304.266 181.992C304.044 182.995 303.758 184.095 303.406 185.293C303.055 186.478 302.651 187.734 302.195 189.062L299.5 196.992C297.951 201.497 297.176 204.408 297.176 205.723C297.176 206.426 297.462 206.777 298.035 206.777C298.582 206.777 299.077 206.66 299.52 206.426C299.975 206.191 300.268 206.074 300.398 206.074C300.672 206.074 300.809 206.211 300.809 206.484C300.809 207.643 300.216 208.613 299.031 209.395C298.237 209.928 297.508 210.195 296.844 210.195C296.193 210.195 295.665 210.117 295.262 209.961C294.858 209.805 294.493 209.557 294.168 209.219ZM314.93 185.215C314.643 185.514 314.318 185.762 313.953 185.957C313.589 186.139 313.204 186.257 312.801 186.309C312.397 186.348 312.013 186.283 311.648 186.113C311.297 185.944 310.991 185.703 310.73 185.391C310.171 184.74 309.891 184.082 309.891 183.418C309.891 182.754 309.995 182.259 310.203 181.934C310.424 181.595 310.698 181.322 311.023 181.113C311.648 180.71 312.234 180.508 312.781 180.508C313.341 180.508 313.771 180.547 314.07 180.625C314.383 180.703 314.669 180.833 314.93 181.016C315.568 181.445 315.887 181.973 315.887 182.598C315.887 183.21 315.796 183.724 315.613 184.141C315.444 184.544 315.216 184.902 314.93 185.215ZM310.926 206.348C311.264 206.348 311.434 206.569 311.434 207.012C311.434 207.598 311.167 208.203 310.633 208.828C309.852 209.74 308.803 210.195 307.488 210.195C305.978 210.195 304.943 209.583 304.383 208.359C304.174 207.93 304.07 207.409 304.07 206.797C304.07 206.185 304.174 205.508 304.383 204.766C304.604 204.01 304.871 203.223 305.184 202.402C305.509 201.569 305.861 200.729 306.238 199.883L307.273 197.422C308.029 195.586 308.406 194.375 308.406 193.789C308.406 193.203 308.341 192.819 308.211 192.637C308.094 192.441 307.964 192.292 307.82 192.188L307.43 191.914C307.299 191.823 307.234 191.667 307.234 191.445C307.234 191.211 307.319 190.99 307.488 190.781C307.671 190.573 307.905 190.391 308.191 190.234C308.777 189.935 309.461 189.785 310.242 189.785C312.156 189.785 313.113 190.286 313.113 191.289C313.113 192.461 312.807 193.802 312.195 195.312C311.583 196.81 311.062 198.021 310.633 198.945L309.461 201.641C308.602 203.62 308.172 205.046 308.172 205.918C308.172 206.491 308.458 206.777 309.031 206.777C309.591 206.777 310.014 206.706 310.301 206.562C310.587 206.419 310.796 206.348 310.926 206.348ZM316.023 203.164C316.076 202.031 316.264 200.951 316.59 199.922C316.915 198.88 317.352 197.878 317.898 196.914C318.445 195.938 319.083 195.02 319.812 194.16C320.555 193.288 321.355 192.526 322.215 191.875C324.077 190.482 325.958 189.785 327.859 189.785C330.086 189.785 331.57 190.703 332.312 192.539C332.573 193.164 332.697 193.906 332.684 194.766C332.671 195.612 332.508 196.4 332.195 197.129C331.883 197.845 331.447 198.503 330.887 199.102C330.34 199.688 329.682 200.215 328.914 200.684C328.159 201.152 327.332 201.549 326.434 201.875C324.585 202.526 322.605 202.865 320.496 202.891C320.444 203.073 320.411 203.346 320.398 203.711C320.385 204.076 320.424 204.486 320.516 204.941C320.607 205.384 320.763 205.781 320.984 206.133C321.453 206.914 322.13 207.305 323.016 207.305C324.526 207.305 325.997 206.862 327.43 205.977C327.937 205.677 328.348 205.371 328.66 205.059C328.986 204.733 329.266 204.57 329.5 204.57C329.734 204.57 329.936 204.714 330.105 205C330.288 205.273 330.379 205.586 330.379 205.938C330.379 206.628 330.184 207.227 329.793 207.734C328.152 209.375 325.711 210.195 322.469 210.195C320.555 210.195 319.018 209.622 317.859 208.477C316.557 207.174 315.945 205.404 316.023 203.164ZM327.43 192.383C326.062 192.383 324.747 193.32 323.484 195.195C322.417 196.81 321.557 198.724 320.906 200.938C323.081 200.716 324.969 199.857 326.57 198.359C328.042 196.953 328.777 195.605 328.777 194.316C328.777 193.027 328.328 192.383 327.43 192.383ZM348.777 193.477C348.374 193.477 347.801 193.867 347.059 194.648C346.316 195.417 345.672 196.12 345.125 196.758L343.465 198.75L340.262 202.832C339.506 204.264 338.914 205.456 338.484 206.406L337.43 208.672C337.156 209.232 336.915 209.629 336.707 209.863C336.512 210.085 336.238 210.195 335.887 210.195C335.548 210.195 335.216 210.13 334.891 210C334.578 209.883 334.305 209.727 334.07 209.531C333.576 209.115 333.328 208.659 333.328 208.164C333.328 207.969 333.471 207.585 333.758 207.012L334.5 205.43C334.734 204.961 335.008 204.362 335.32 203.633L336.414 200.957C337.951 197.116 338.719 194.635 338.719 193.516C338.719 192.917 338.523 192.474 338.133 192.188L337.742 191.914C337.612 191.823 337.547 191.667 337.547 191.445C337.547 191.211 337.631 190.99 337.801 190.781C337.983 190.573 338.217 190.391 338.504 190.234C339.09 189.935 339.676 189.785 340.262 189.785C340.861 189.785 341.323 189.85 341.648 189.98C341.974 190.111 342.247 190.286 342.469 190.508C342.951 190.964 343.191 191.439 343.191 191.934C343.191 192.428 343.126 192.93 342.996 193.438C342.879 193.932 342.723 194.44 342.527 194.961C342.345 195.469 342.15 195.97 341.941 196.465C341.733 196.96 341.544 197.389 341.375 197.754L340.984 198.594C340.88 198.802 340.854 198.867 340.906 198.789C342.352 196.784 343.302 195.495 343.758 194.922L345.125 193.281C346.128 192.109 346.915 191.335 347.488 190.957C348.647 190.176 349.559 189.785 350.223 189.785C350.887 189.785 351.447 189.87 351.902 190.039C352.358 190.208 352.755 190.449 353.094 190.762C353.81 191.426 354.168 192.272 354.168 193.301C354.168 194.329 353.934 195.404 353.465 196.523C352.996 197.643 352.586 198.555 352.234 199.258C351.896 199.948 351.57 200.651 351.258 201.367C350.281 203.542 349.793 205.124 349.793 206.113C349.793 206.556 350.145 206.777 350.848 206.777C351.395 206.777 351.889 206.66 352.332 206.426C352.788 206.191 353.081 206.074 353.211 206.074C353.484 206.074 353.621 206.211 353.621 206.484C353.621 207.643 353.029 208.613 351.844 209.395C351.049 209.928 350.32 210.195 349.656 210.195C348.992 210.195 348.439 210.124 347.996 209.98C347.566 209.837 347.182 209.609 346.844 209.297C346.076 208.607 345.691 207.643 345.691 206.406C345.691 204.896 346.167 203.008 347.117 200.742C347.807 199.193 348.296 198.132 348.582 197.559L349.246 196.172C349.65 195.339 349.852 194.681 349.852 194.199C349.852 193.717 349.493 193.477 348.777 193.477ZM384.539 204.805C384.539 206.003 384.962 206.602 385.809 206.602C386.395 206.602 386.876 206.51 387.254 206.328C387.645 206.146 387.905 206.055 388.035 206.055C388.309 206.055 388.445 206.198 388.445 206.484C388.445 207.604 387.859 208.568 386.687 209.375C385.451 210.221 384.187 210.43 382.898 210C382.052 209.701 381.427 209.056 381.023 208.066C380.828 207.559 380.73 207.096 380.73 206.68C380.73 206.003 380.796 205.286 380.926 204.531C379.715 207.005 378.211 208.711 376.414 209.648C375.698 210.013 374.936 210.195 374.129 210.195C373.322 210.195 372.618 210.033 372.02 209.707C371.434 209.368 370.932 208.906 370.516 208.32C369.669 207.096 369.285 205.56 369.363 203.711C369.441 201.393 370.125 199.121 371.414 196.895C372.599 194.811 374.096 193.112 375.906 191.797C377.716 190.456 379.409 189.785 380.984 189.785C382.56 189.785 383.829 190.508 384.793 191.953C385.691 190.508 386.486 189.785 387.176 189.785C387.918 189.785 388.478 189.922 388.855 190.195C389.572 190.716 389.826 191.172 389.617 191.562C386.349 198.255 384.669 202.422 384.578 204.062C384.552 204.297 384.539 204.544 384.539 204.805ZM373.699 204.883C373.699 206.445 374.201 207.227 375.203 207.227C375.971 207.227 376.915 206.576 378.035 205.273C379.676 203.359 381.128 200.781 382.391 197.539C382.794 196.523 383.133 195.508 383.406 194.492C383.354 193.607 382.983 192.956 382.293 192.539C382.059 192.396 381.707 192.324 381.238 192.324C380.783 192.324 380.242 192.493 379.617 192.832C379.005 193.171 378.406 193.633 377.82 194.219C377.247 194.805 376.707 195.501 376.199 196.309C375.704 197.103 375.268 197.969 374.891 198.906C374.096 200.911 373.699 202.904 373.699 204.883ZM383.855 179.473C383.738 181.647 383.68 182.878 383.68 183.164C383.68 184.206 383.868 185.169 384.246 186.055C384.689 186.758 384.91 187.214 384.91 187.422C384.91 187.63 384.826 187.799 384.656 187.93C384.5 188.047 384.253 188.105 383.914 188.105C383.576 188.105 383.126 187.91 382.566 187.52C382.02 187.129 381.512 186.615 381.043 185.977C379.91 184.466 379.331 182.949 379.305 181.426C379.305 180.697 379.493 180.13 379.871 179.727C380.587 178.984 381.408 178.613 382.332 178.613C383.009 178.613 383.471 178.763 383.719 179.062C383.81 179.18 383.855 179.316 383.855 179.473ZM403.523 208.105C403.328 207.676 403.23 207.168 403.23 206.582C403.23 205.996 403.322 205.352 403.504 204.648C403.686 203.932 403.921 203.203 404.207 202.461C404.493 201.719 404.812 200.964 405.164 200.195L406.16 197.93C407.449 194.948 407.924 193.19 407.586 192.656C407.43 192.409 407.13 192.161 406.687 191.914C406.544 191.823 406.473 191.667 406.473 191.445C406.473 191.211 406.564 190.99 406.746 190.781C406.941 190.573 407.195 190.391 407.508 190.234C408.133 189.935 408.764 189.785 409.402 189.785C410.04 189.785 410.522 189.857 410.848 190C411.186 190.13 411.466 190.299 411.687 190.508C412.104 190.938 412.312 191.458 412.312 192.07C412.312 192.682 412.195 193.372 411.961 194.141C411.727 194.909 411.434 195.716 411.082 196.562C410.73 197.409 410.346 198.275 409.93 199.16L408.777 201.719C407.957 203.607 407.547 204.857 407.547 205.469C407.547 206.667 407.97 207.266 408.816 207.266C410.991 207.266 413.029 205.977 414.93 203.398C416.036 201.901 416.831 200.273 417.312 198.516C417.534 197.682 417.645 196.927 417.645 196.25C417.645 195.56 417.618 194.987 417.566 194.531C417.527 194.076 417.456 193.672 417.352 193.32C417.182 192.695 416.896 192.155 416.492 191.699C416.219 191.361 416.342 190.964 416.863 190.508C417.436 190.026 418.25 189.785 419.305 189.785C419.956 189.785 420.529 190.091 421.023 190.703C421.648 191.432 421.961 192.48 421.961 193.848C421.961 195.202 421.759 196.536 421.355 197.852C420.952 199.154 420.398 200.41 419.695 201.621C418.992 202.819 418.159 203.939 417.195 204.98C416.245 206.022 415.216 206.927 414.109 207.695C411.74 209.362 409.37 210.195 407 210.195C405.294 210.195 404.135 209.499 403.523 208.105ZM425.691 208.672C425.145 208.151 424.715 207.493 424.402 206.699C424.09 205.892 423.927 204.941 423.914 203.848C423.901 202.754 424.031 201.647 424.305 200.527C424.591 199.408 424.988 198.327 425.496 197.285C426.017 196.243 426.635 195.267 427.352 194.355C428.081 193.444 428.881 192.65 429.754 191.973C431.655 190.514 433.628 189.785 435.672 189.785C438.354 189.785 440.171 190.964 441.121 193.32C441.798 195.026 441.837 197.09 441.238 199.512C440.691 201.738 439.689 203.783 438.23 205.645C436.785 207.507 435.079 208.828 433.113 209.609C432.124 210 431.147 210.195 430.184 210.195C429.233 210.195 428.38 210.072 427.625 209.824C426.883 209.577 426.238 209.193 425.691 208.672ZM429.422 199.199C429.031 200.163 428.719 201.152 428.484 202.168C428.263 203.184 428.159 204.147 428.172 205.059C428.185 205.957 428.322 206.667 428.582 207.188C428.855 207.695 429.292 207.949 429.891 207.949C430.49 207.949 431.076 207.747 431.648 207.344C432.234 206.927 432.801 206.38 433.348 205.703C433.895 205.026 434.409 204.245 434.891 203.359C435.372 202.474 435.796 201.549 436.16 200.586C436.954 198.49 437.339 196.628 437.312 195C437.312 193.568 437.02 192.656 436.434 192.266C436.199 192.109 435.867 192.031 435.437 192.031C435.021 192.031 434.539 192.227 433.992 192.617C433.445 192.995 432.898 193.509 432.352 194.16C431.805 194.811 431.277 195.573 430.77 196.445C430.262 197.318 429.812 198.236 429.422 199.199ZM443.523 206.562C443.523 206.159 443.608 205.788 443.777 205.449C443.96 205.098 444.181 204.805 444.441 204.57C444.988 204.062 445.561 203.809 446.16 203.809C446.681 203.809 446.941 204.076 446.941 204.609C446.941 205.964 447.391 206.908 448.289 207.441C448.615 207.637 448.953 207.734 449.305 207.734C449.656 207.734 449.956 207.695 450.203 207.617C450.451 207.539 450.678 207.415 450.887 207.246C451.355 206.868 451.59 206.419 451.59 205.898C451.59 205.378 451.473 204.902 451.238 204.473C451.004 204.03 450.711 203.568 450.359 203.086L449.246 201.523C447.684 199.44 446.902 197.52 446.902 195.762C446.902 194.303 447.521 192.982 448.758 191.797C450.164 190.456 451.967 189.785 454.168 189.785C456.095 189.785 457.599 190.26 458.68 191.211C459.565 191.979 460.008 192.858 460.008 193.848C460.008 194.876 459.617 195.697 458.836 196.309C458.133 196.855 457.43 197.057 456.727 196.914C456.414 196.849 456.173 196.693 456.004 196.445C455.835 196.185 455.802 195.892 455.906 195.566C456.01 195.241 456.062 194.902 456.062 194.551C456.062 194.199 455.997 193.874 455.867 193.574C455.737 193.275 455.561 193.021 455.34 192.812C454.884 192.383 454.402 192.168 453.895 192.168C453.4 192.168 452.99 192.227 452.664 192.344C452.339 192.448 452.052 192.604 451.805 192.812C451.297 193.281 451.043 193.861 451.043 194.551C451.043 195.228 451.16 195.814 451.395 196.309C451.629 196.803 451.915 197.298 452.254 197.793C452.605 198.288 452.983 198.789 453.387 199.297C453.79 199.805 454.161 200.339 454.5 200.898C455.32 202.214 455.73 203.372 455.73 204.375C455.73 205.365 455.522 206.198 455.105 206.875C454.689 207.539 454.148 208.112 453.484 208.594C452.065 209.648 450.477 210.176 448.719 210.176C447.039 210.176 445.711 209.772 444.734 208.965C443.927 208.288 443.523 207.487 443.523 206.562ZM488.797 204.805C488.797 206.003 489.22 206.602 490.066 206.602C490.652 206.602 491.134 206.51 491.512 206.328C491.902 206.146 492.163 206.055 492.293 206.055C492.566 206.055 492.703 206.198 492.703 206.484C492.703 207.604 492.117 208.568 490.945 209.375C489.708 210.221 488.445 210.43 487.156 210C486.31 209.701 485.685 209.056 485.281 208.066C485.086 207.559 484.988 207.096 484.988 206.68C484.988 206.003 485.053 205.286 485.184 204.531C483.973 207.005 482.469 208.711 480.672 209.648C479.956 210.013 479.194 210.195 478.387 210.195C477.579 210.195 476.876 210.033 476.277 209.707C475.691 209.368 475.19 208.906 474.773 208.32C473.927 207.096 473.543 205.56 473.621 203.711C473.699 201.393 474.383 199.121 475.672 196.895C476.857 194.811 478.354 193.112 480.164 191.797C481.974 190.456 483.667 189.785 485.242 189.785C486.818 189.785 488.087 190.508 489.051 191.953C489.949 190.508 490.743 189.785 491.434 189.785C492.176 189.785 492.736 189.922 493.113 190.195C493.829 190.716 494.083 191.172 493.875 191.562C490.607 198.255 488.927 202.422 488.836 204.062C488.81 204.297 488.797 204.544 488.797 204.805ZM477.957 204.883C477.957 206.445 478.458 207.227 479.461 207.227C480.229 207.227 481.173 206.576 482.293 205.273C483.934 203.359 485.385 200.781 486.648 197.539C487.052 196.523 487.391 195.508 487.664 194.492C487.612 193.607 487.241 192.956 486.551 192.539C486.316 192.396 485.965 192.324 485.496 192.324C485.04 192.324 484.5 192.493 483.875 192.832C483.263 193.171 482.664 193.633 482.078 194.219C481.505 194.805 480.965 195.501 480.457 196.309C479.962 197.103 479.526 197.969 479.148 198.906C478.354 200.911 477.957 202.904 477.957 204.883ZM510.125 193.477C509.37 193.477 507.99 194.57 505.984 196.758C504.487 198.464 503.4 199.746 502.723 200.605L500.965 202.832C500.21 204.264 499.617 205.456 499.187 206.406L498.133 208.672C497.859 209.232 497.618 209.629 497.41 209.863C497.215 210.085 496.941 210.195 496.59 210.195C496.251 210.195 495.919 210.13 495.594 210C495.281 209.883 495.008 209.727 494.773 209.531C494.279 209.115 494.031 208.659 494.031 208.164C494.031 207.969 494.174 207.585 494.461 207.012L495.203 205.43C495.437 204.961 495.711 204.362 496.023 203.633L497.117 200.957C498.654 197.116 499.422 194.635 499.422 193.516C499.422 192.917 499.227 192.474 498.836 192.188L498.445 191.914C498.315 191.823 498.25 191.667 498.25 191.445C498.25 191.211 498.335 190.99 498.504 190.781C498.686 190.573 498.921 190.391 499.207 190.234C499.793 189.935 500.379 189.785 500.965 189.785C501.564 189.785 502.033 189.85 502.371 189.98C502.71 190.111 503.003 190.286 503.25 190.508C503.745 190.964 503.992 191.439 503.992 191.934C503.992 192.428 503.927 192.93 503.797 193.438C503.667 193.932 503.504 194.44 503.309 194.961C503.113 195.469 502.905 195.964 502.684 196.445C502.163 197.565 501.837 198.255 501.707 198.516C501.59 198.763 501.557 198.854 501.609 198.789C503.992 195.703 505.424 193.88 505.906 193.32C506.909 192.161 507.69 191.367 508.25 190.938C509.279 190.169 510.249 189.785 511.16 189.785C512.085 189.785 512.82 190.072 513.367 190.645C513.914 191.217 514.187 191.973 514.187 192.91C514.187 193.73 513.979 194.694 513.562 195.801C513.146 196.908 512.866 197.682 512.723 198.125L515.594 194.336L517.195 192.422C518.159 191.341 519.005 190.632 519.734 190.293C520.464 189.954 521.056 189.785 521.512 189.785C521.98 189.785 522.436 189.87 522.879 190.039C523.335 190.208 523.719 190.449 524.031 190.762C524.695 191.4 525.027 192.246 525.027 193.301C525.027 194.316 524.793 195.358 524.324 196.426C523.855 197.493 523.445 198.372 523.094 199.062C522.742 199.74 522.404 200.423 522.078 201.113C521.128 203.184 520.652 204.72 520.652 205.723C520.652 206.426 520.939 206.777 521.512 206.777C522.059 206.777 522.553 206.66 522.996 206.426C523.452 206.191 523.745 206.074 523.875 206.074C524.148 206.074 524.285 206.211 524.285 206.484C524.285 207.643 523.693 208.613 522.508 209.395C521.714 209.928 520.984 210.195 520.32 210.195C519.669 210.195 519.142 210.117 518.738 209.961C518.335 209.805 517.97 209.557 517.645 209.219C516.915 208.464 516.551 207.52 516.551 206.387C516.551 205.254 516.694 204.212 516.98 203.262C517.267 202.311 517.605 201.393 517.996 200.508C518.387 199.609 518.777 198.789 519.168 198.047C519.572 197.292 519.878 196.693 520.086 196.25C520.503 195.339 520.711 194.668 520.711 194.238C520.711 193.73 520.444 193.477 519.91 193.477C519.207 193.477 517.944 194.642 516.121 196.973C514.741 198.783 513.784 200.085 513.25 200.879L511.902 202.832C511.147 204.264 510.568 205.456 510.164 206.406L509.168 208.672C508.921 209.232 508.706 209.629 508.523 209.863C508.341 210.085 508.087 210.195 507.762 210.195C507.436 210.195 507.117 210.143 506.805 210.039C506.505 209.935 506.245 209.798 506.023 209.629C505.516 209.251 505.262 208.854 505.262 208.438C505.262 208.008 505.398 207.428 505.672 206.699C505.958 205.957 506.31 205.13 506.727 204.219L509.461 198.438C510.437 196.289 510.926 194.928 510.926 194.355C510.926 193.77 510.659 193.477 510.125 193.477ZM512.059 198.984C512.072 198.984 512.078 198.978 512.078 198.965L512.098 198.926C512.072 198.952 512.059 198.971 512.059 198.984ZM538.562 185.215C538.276 185.514 537.951 185.762 537.586 185.957C537.221 186.139 536.837 186.257 536.434 186.309C536.03 186.348 535.646 186.283 535.281 186.113C534.93 185.944 534.624 185.703 534.363 185.391C533.803 184.74 533.523 184.082 533.523 183.418C533.523 182.754 533.628 182.259 533.836 181.934C534.057 181.595 534.331 181.322 534.656 181.113C535.281 180.71 535.867 180.508 536.414 180.508C536.974 180.508 537.404 180.547 537.703 180.625C538.016 180.703 538.302 180.833 538.562 181.016C539.201 181.445 539.52 181.973 539.52 182.598C539.52 183.21 539.428 183.724 539.246 184.141C539.077 184.544 538.849 184.902 538.562 185.215ZM534.559 206.348C534.897 206.348 535.066 206.569 535.066 207.012C535.066 207.598 534.799 208.203 534.266 208.828C533.484 209.74 532.436 210.195 531.121 210.195C529.611 210.195 528.576 209.583 528.016 208.359C527.807 207.93 527.703 207.409 527.703 206.797C527.703 206.185 527.807 205.508 528.016 204.766C528.237 204.01 528.504 203.223 528.816 202.402C529.142 201.569 529.493 200.729 529.871 199.883L530.906 197.422C531.661 195.586 532.039 194.375 532.039 193.789C532.039 193.203 531.974 192.819 531.844 192.637C531.727 192.441 531.596 192.292 531.453 192.188L531.062 191.914C530.932 191.823 530.867 191.667 530.867 191.445C530.867 191.211 530.952 190.99 531.121 190.781C531.303 190.573 531.538 190.391 531.824 190.234C532.41 189.935 533.094 189.785 533.875 189.785C535.789 189.785 536.746 190.286 536.746 191.289C536.746 192.461 536.44 193.802 535.828 195.312C535.216 196.81 534.695 198.021 534.266 198.945L533.094 201.641C532.234 203.62 531.805 205.046 531.805 205.918C531.805 206.491 532.091 206.777 532.664 206.777C533.224 206.777 533.647 206.706 533.934 206.562C534.22 206.419 534.428 206.348 534.559 206.348ZM538.523 206.562C538.523 206.159 538.608 205.788 538.777 205.449C538.96 205.098 539.181 204.805 539.441 204.57C539.988 204.062 540.561 203.809 541.16 203.809C541.681 203.809 541.941 204.076 541.941 204.609C541.941 205.964 542.391 206.908 543.289 207.441C543.615 207.637 543.953 207.734 544.305 207.734C544.656 207.734 544.956 207.695 545.203 207.617C545.451 207.539 545.678 207.415 545.887 207.246C546.355 206.868 546.59 206.419 546.59 205.898C546.59 205.378 546.473 204.902 546.238 204.473C546.004 204.03 545.711 203.568 545.359 203.086L544.246 201.523C542.684 199.44 541.902 197.52 541.902 195.762C541.902 194.303 542.521 192.982 543.758 191.797C545.164 190.456 546.967 189.785 549.168 189.785C551.095 189.785 552.599 190.26 553.68 191.211C554.565 191.979 555.008 192.858 555.008 193.848C555.008 194.876 554.617 195.697 553.836 196.309C553.133 196.855 552.43 197.057 551.727 196.914C551.414 196.849 551.173 196.693 551.004 196.445C550.835 196.185 550.802 195.892 550.906 195.566C551.01 195.241 551.062 194.902 551.062 194.551C551.062 194.199 550.997 193.874 550.867 193.574C550.737 193.275 550.561 193.021 550.34 192.812C549.884 192.383 549.402 192.168 548.895 192.168C548.4 192.168 547.99 192.227 547.664 192.344C547.339 192.448 547.052 192.604 546.805 192.812C546.297 193.281 546.043 193.861 546.043 194.551C546.043 195.228 546.16 195.814 546.395 196.309C546.629 196.803 546.915 197.298 547.254 197.793C547.605 198.288 547.983 198.789 548.387 199.297C548.79 199.805 549.161 200.339 549.5 200.898C550.32 202.214 550.73 203.372 550.73 204.375C550.73 205.365 550.522 206.198 550.105 206.875C549.689 207.539 549.148 208.112 548.484 208.594C547.065 209.648 545.477 210.176 543.719 210.176C542.039 210.176 540.711 209.772 539.734 208.965C538.927 208.288 538.523 207.487 538.523 206.562Z" fill="#FFCA00"/>
<path d="M211.78 205.404C212.846 205.693 213.945 205.063 214.234 203.997C214.523 202.931 213.893 201.832 212.827 201.543L211.78 205.404ZM169 109.5L167.204 110.38L167.204 110.38L169 109.5ZM41.1711 1.40119C40.5642 0.478258 39.3241 0.222032 38.4012 0.828889L23.3612 10.7182C22.4382 11.3251 22.182 12.5652 22.7889 13.4881C23.3957 14.4111 24.6359 14.6673 25.5588 14.0604L38.9277 5.26992L47.7182 18.6388C48.325 19.5617 49.5652 19.818 50.4881 19.2111C51.411 18.6042 51.6673 17.3641 51.0604 16.4412L41.1711 1.40119ZM37.5414 2.09532C36.4276 7.4858 35.525 12.7223 34.8216 17.8073L38.7839 18.3555C39.4748 13.3612 40.3621 8.21186 41.4586 2.90468L37.5414 2.09532ZM33.2304 33.6512C32.5298 45.1535 32.9152 55.7879 34.2175 65.5881L38.1826 65.0612C36.9167 55.534 36.5369 45.1582 37.223 33.8944L33.2304 33.6512ZM37.2517 81.3268C40.1148 92.4721 44.2716 102.319 49.3781 110.934L52.819 108.894C47.9108 100.614 43.8972 91.1197 41.1259 80.3316L37.2517 81.3268ZM58.618 124.051C65.8395 132.74 74.1294 139.703 82.8834 145.065L84.9726 141.654C76.5756 136.511 68.6235 129.832 61.6942 121.495L58.618 124.051ZM97.2435 152.316C107.81 156.604 118.584 158.821 128.622 159.151L128.754 155.153C119.199 154.839 108.889 152.725 98.7476 148.61L97.2435 152.316ZM144.801 157.93C156.968 155.543 167.046 149.76 172.126 140.784L168.645 138.814C164.338 146.424 155.516 151.751 144.03 154.005L144.801 157.93ZM175.497 124.438C175.081 119.534 173.554 114.246 170.796 108.62L167.204 110.38C169.785 115.646 171.144 120.453 171.511 124.776L175.497 124.438ZM170.796 108.62C168.402 103.736 165.697 99.778 162.773 96.6769L159.863 99.4207C162.467 102.184 164.957 105.795 167.204 110.38L170.796 108.62ZM150.44 88.7881C140.599 85.9417 130.728 90.1597 123.859 98.1666L126.894 100.771C133.031 93.6186 141.376 90.3303 149.328 92.6306L150.44 88.7881ZM116.699 110.703C113.787 118.934 113.159 128.741 116.01 139.008L119.864 137.938C117.233 128.461 117.832 119.494 120.47 112.037L116.699 110.703ZM121.534 152.109C125.678 159.348 131.713 166.554 140.008 173.38L142.549 170.292C134.588 163.74 128.884 156.896 125.006 150.122L121.534 152.109ZM151.3 181.513C158.401 186.01 166.672 190.257 176.242 194.137L177.745 190.43C168.371 186.629 160.317 182.489 153.44 178.134L151.3 181.513ZM189.304 198.925C193.526 200.323 197.959 201.656 202.611 202.917L203.658 199.057C199.073 197.813 194.71 196.501 190.56 195.128L189.304 198.925ZM202.611 202.917L205.668 203.746L206.715 199.886L203.658 199.057L202.611 202.917ZM208.724 204.575L211.78 205.404L212.827 201.543L209.771 200.714L208.724 204.575Z" fill="#FFCA00"/>
</svg>
